<?xml version="1.0" encoding="iso-8859-1"?>
<!-- Generator: Adobe Illustrator 16.0.0, SVG Export Plug-In . SVG Version: 6.00 Build 0)  -->
<!DOCTYPE svg PUBLIC "-//W3C//DTD SVG 1.1//EN" "http://www.w3.org/Graphics/SVG/1.1/DTD/svg11.dtd">
<svg version="1.1" id="Capa_1" xmlns="http://www.w3.org/2000/svg" xmlns:xlink="http://www.w3.org/1999/xlink" x="0px" y="0px"
	 width="572.591px" height="572.592px" viewBox="0 0 572.591 572.592" style="enable-background:new 0 0 572.591 572.592;"
	 xml:space="preserve">
<g>
	<g>
		<path d="M449.581,546.764V25.828C449.581,11.58,438,0,423.752,0H148.84c-14.248,0-25.829,11.58-25.829,25.828v520.936
			c0,14.248,11.581,25.828,25.829,25.828h274.913C438,572.592,449.581,561.012,449.581,546.764z M435.495,546.764
			c0,6.475-5.269,11.744-11.742,11.744H148.84c-6.474,0-11.743-5.26-11.743-11.744V25.828c0-6.474,5.269-11.743,11.743-11.743
			h274.913c6.474,0,11.742,5.259,11.742,11.743V546.764L435.495,546.764z"/>
		<path d="M416.829,51.876H155.763c-1.951,0-3.529,1.568-3.529,3.519v453.464c0,1.949,1.578,3.527,3.529,3.527h261.065
			c1.951,0,3.528-1.578,3.528-3.527V55.396C420.357,53.454,418.78,51.876,416.829,51.876z M403.748,505.35H168.845
			c-5.279,0-9.562-4.285-9.562-9.562V68.486c0-5.278,4.284-9.562,9.562-9.562h234.893c5.278,0,9.562,4.284,9.562,9.562v427.301
			C413.31,501.064,409.026,505.35,403.748,505.35z"/>
		<path d="M318.995,524.254h-65.407c-1.941,0-3.519,1.578-3.519,3.52v17.441c0,1.951,1.578,3.52,3.519,3.52h65.407
			c1.941,0,3.52-1.578,3.52-3.52v-17.441C322.523,525.822,320.946,524.254,318.995,524.254z M305.914,541.697h-39.235
			c-5.278,0-9.562-2.334-9.562-5.203s4.284-5.201,9.562-5.201h39.235c5.278,0,9.562,2.322,9.562,5.201
			C315.476,539.363,311.202,541.697,305.914,541.697z"/>
	</g>
</g>
<g>
</g>
<g>
</g>
<g>
</g>
<g>
</g>
<g>
</g>
<g>
</g>
<g>
</g>
<g>
</g>
<g>
</g>
<g>
</g>
<g>
</g>
<g>
</g>
<g>
</g>
<g>
</g>
<g>
</g>
</svg>
