<?xml version="1.0" encoding="iso-8859-1"?>
<!-- Generator: Adobe Illustrator 19.0.0, SVG Export Plug-In . SVG Version: 6.00 Build 0)  -->
<svg version="1.1" id="Layer_1" xmlns="http://www.w3.org/2000/svg" xmlns:xlink="http://www.w3.org/1999/xlink" x="0px" y="0px"
	 viewBox="0 0 512 512" style="enable-background:new 0 0 512 512;" xml:space="preserve">
<g>
	<g>
		<g>
			<path d="M482.358,226.358h-13.626c-2.007-59.589-26.145-115.323-68.514-157.692C355.937,24.386,297.065,0,234.442,0
				C171.82,0,112.947,24.386,68.666,68.666C24.386,112.947,0,171.821,0,234.442c0,109.92,76.666,205.078,183.242,228.804v19.112
				c0,16.345,13.298,29.642,29.642,29.642h269.474C498.702,512,512,498.703,512,482.358V288.337V256
				C512,239.655,498.702,226.358,482.358,226.358z M415.843,113.179h-96.635c-5.617-22.58-12.791-42.851-21.224-59.618
				c-6.928-13.778-14.531-24.989-22.661-33.537C333.687,31.129,383.891,65.538,415.843,113.179z M234.442,16.168
				c17.179,0,34.615,15.859,49.097,44.657c7.434,14.783,13.842,32.543,18.998,52.353H166.183
				C182.029,52.493,208.817,16.168,234.442,16.168z M193.665,20.005c-11.51,12.044-21.934,29.332-30.752,51.376
				c-5.12,12.799-9.56,26.827-13.287,41.799h-38.564c4.779-4.849,9.864-9.457,15.259-13.782c3.483-2.793,4.043-7.88,1.25-11.364
				c-2.793-3.483-7.882-4.042-11.364-1.25c-9.96,7.984-18.977,16.835-26.988,26.397H53.041
				C85.012,65.509,135.256,31.088,193.665,20.005z M135.873,242.526c0.484,34.278,4.033,67.297,10.155,97.011H96.993
				c-21.297-27.76-33.714-61.414-35.352-97.011H135.873z M61.642,226.358c1.637-35.596,14.055-69.25,35.352-97.011h48.962
				c-6.144,29.829-9.606,62.787-10.078,97.011H61.642z M43.189,129.347h33.894c-19.109,28.528-30.149,61.921-31.624,97.011H16.333
				C17.617,191.297,27.203,158.323,43.189,129.347z M16.329,242.526H45.46c1.475,35.09,12.515,68.483,31.624,97.011H43.178
				C27.142,310.396,17.613,277.351,16.329,242.526z M183.242,446.662c-54.574-13.1-100.443-46.409-130.231-90.956h36.208
				c8.012,9.561,17.029,18.412,26.988,26.397c1.492,1.196,3.278,1.777,5.052,1.777c2.368,0,4.716-1.036,6.312-3.028
				c2.793-3.484,2.232-8.571-1.25-11.364c-5.395-4.325-10.48-8.933-15.259-13.782h38.645c8.136,32.745,19.564,60.585,33.535,80.402
				V446.662z M183.242,256v32.337v115.5c-18.805-39.653-30.294-98.038-31.199-161.31h17.725c4.466,0,8.084-3.62,8.084-8.084
				c0-4.465-3.619-8.084-8.084-8.084h-17.724c0.493-36.112,4.261-68.777,10.308-97.011H306.37
				c3.513,16.36,6.215,33.834,7.988,51.987c0.433,4.444,4.378,7.696,8.832,7.26c4.443-0.434,7.693-4.388,7.26-8.832
				c-1.708-17.497-4.266-34.422-7.569-50.414h102.815c15.986,28.976,25.571,61.95,26.855,97.011H328.758v-2.695
				c0-10.401-8.463-18.863-18.863-18.863h-64.674c-10.401,0-18.863,8.463-18.863,18.863v2.695h-13.474
				C196.54,226.358,183.242,239.655,183.242,256z M312.589,223.663v56.589h-70.063v-56.589c0-1.485,1.208-2.695,2.695-2.695h64.674
				C311.381,220.968,312.589,222.178,312.589,223.663z M226.358,242.526v37.726h-26.947V256c0-7.43,6.044-13.474,13.474-13.474
				H226.358z M495.832,482.358c0,7.43-6.044,13.474-13.474,13.474H212.884c-7.43,0-13.474-6.044-13.474-13.474v-25.755
				c0-0.012,0-0.024,0-0.036V296.421h296.421V482.358z M495.832,280.253H328.758v-37.726h153.6c7.43,0,13.474,6.044,13.474,13.474
				V280.253z"/>
			<path d="M234.442,339.537h53.895c4.466,0,8.084-3.62,8.084-8.084s-3.619-8.084-8.084-8.084h-53.895
				c-4.466,0-8.084,3.62-8.084,8.084S229.976,339.537,234.442,339.537z"/>
			<path d="M245.221,468.884h204.8c10.401,0,18.863-8.463,18.863-18.863v-64.674c0-10.401-8.463-18.863-18.863-18.863h-204.8
				c-10.401,0-18.863,8.463-18.863,18.863v64.674C226.358,460.422,234.82,468.884,245.221,468.884z M242.526,385.347
				c0-1.485,1.208-2.695,2.695-2.695h204.8c1.486,0,2.695,1.209,2.695,2.695v64.674c0,1.485-1.208,2.695-2.695,2.695h-204.8
				c-1.486,0-2.695-1.209-2.695-2.695V385.347z"/>
			<path d="M331.453,339.537H460.8c4.466,0,8.084-3.62,8.084-8.084s-3.618-8.084-8.084-8.084H331.453
				c-4.466,0-8.084,3.62-8.084,8.084S326.987,339.537,331.453,339.537z"/>
			<path d="M406.905,252.766c-4.466,0-8.084,3.62-8.084,8.084v1.078c0,4.465,3.618,8.084,8.084,8.084
				c4.466,0,8.084-3.62,8.084-8.084v-1.078C414.989,256.386,411.371,252.766,406.905,252.766z"/>
			<path d="M471.579,252.766c-4.466,0-8.084,3.62-8.084,8.084v1.078c0,4.465,3.618,8.084,8.084,8.084
				c4.466,0,8.084-3.62,8.084-8.084v-1.078C479.663,256.386,476.045,252.766,471.579,252.766z"/>
			<path d="M439.242,252.766c-4.466,0-8.084,3.62-8.084,8.084v1.078c0,4.465,3.618,8.084,8.084,8.084
				c4.466,0,8.084-3.62,8.084-8.084v-1.078C447.326,256.386,443.708,252.766,439.242,252.766z"/>
		</g>
	</g>
</g>
<g>
</g>
<g>
</g>
<g>
</g>
<g>
</g>
<g>
</g>
<g>
</g>
<g>
</g>
<g>
</g>
<g>
</g>
<g>
</g>
<g>
</g>
<g>
</g>
<g>
</g>
<g>
</g>
<g>
</g>
</svg>
